<mxfile host="app.diagrams.net" modified="2023-06-02T09:51:15.226Z" agent="Mozilla/5.0 (Macintosh; Intel Mac OS X 10_15_7) AppleWebKit/537.36 (KHTML, like Gecko) Chrome/113.0.0.0 Safari/537.36" etag="lLt7gNTEmMNBuQjGsE6K" version="21.3.7" type="github">
  <diagram id="wFE0QG_FPsp0jaGvCLVb" name="Page-1">
    <mxGraphModel dx="966" dy="692" grid="1" gridSize="10" guides="1" tooltips="1" connect="1" arrows="1" fold="1" page="1" pageScale="1" pageWidth="850" pageHeight="1100" math="0" shadow="0">
      <root>
        <mxCell id="0" />
        <mxCell id="1" parent="0" />
        <mxCell id="Jm2jBwDtXu_H1HuVSEjl-3" style="edgeStyle=orthogonalEdgeStyle;rounded=0;orthogonalLoop=1;jettySize=auto;html=1;exitX=0.5;exitY=1;exitDx=0;exitDy=0;entryX=0.5;entryY=0;entryDx=0;entryDy=0;curved=1;" edge="1" parent="1" source="Xrj2e5TeDreEWDdKq3HA-1" target="Jm2jBwDtXu_H1HuVSEjl-1">
          <mxGeometry relative="1" as="geometry" />
        </mxCell>
        <mxCell id="Jm2jBwDtXu_H1HuVSEjl-4" style="edgeStyle=orthogonalEdgeStyle;curved=1;rounded=0;orthogonalLoop=1;jettySize=auto;html=1;exitX=0.5;exitY=1;exitDx=0;exitDy=0;" edge="1" parent="1" source="Xrj2e5TeDreEWDdKq3HA-1" target="Jm2jBwDtXu_H1HuVSEjl-2">
          <mxGeometry relative="1" as="geometry" />
        </mxCell>
        <mxCell id="Xrj2e5TeDreEWDdKq3HA-1" value="默认初始化" style="rounded=1;whiteSpace=wrap;html=1;fillColor=#dae8fc;strokeColor=#6c8ebf;" parent="1" vertex="1">
          <mxGeometry x="140" y="160" width="120" height="60" as="geometry" />
        </mxCell>
        <mxCell id="Xrj2e5TeDreEWDdKq3HA-4" style="edgeStyle=orthogonalEdgeStyle;rounded=0;orthogonalLoop=1;jettySize=auto;html=1;exitX=0.5;exitY=1;exitDx=0;exitDy=0;entryX=0.5;entryY=0;entryDx=0;entryDy=0;curved=1;" parent="1" source="Xrj2e5TeDreEWDdKq3HA-2" target="Xrj2e5TeDreEWDdKq3HA-3" edge="1">
          <mxGeometry relative="1" as="geometry" />
        </mxCell>
        <mxCell id="Xrj2e5TeDreEWDdKq3HA-5" style="edgeStyle=orthogonalEdgeStyle;rounded=0;orthogonalLoop=1;jettySize=auto;html=1;exitX=0.5;exitY=1;exitDx=0;exitDy=0;entryX=0.5;entryY=0;entryDx=0;entryDy=0;curved=1;" parent="1" source="Xrj2e5TeDreEWDdKq3HA-2" target="Xrj2e5TeDreEWDdKq3HA-1" edge="1">
          <mxGeometry relative="1" as="geometry" />
        </mxCell>
        <mxCell id="Xrj2e5TeDreEWDdKq3HA-2" value="值初始化" style="rounded=1;whiteSpace=wrap;html=1;fillColor=#dae8fc;strokeColor=#6c8ebf;" parent="1" vertex="1">
          <mxGeometry x="490" y="10" width="120" height="60" as="geometry" />
        </mxCell>
        <mxCell id="Xrj2e5TeDreEWDdKq3HA-3" value="零始化" style="rounded=1;whiteSpace=wrap;html=1;fillColor=#dae8fc;strokeColor=#6c8ebf;" parent="1" vertex="1">
          <mxGeometry x="365" y="370" width="120" height="60" as="geometry" />
        </mxCell>
        <mxCell id="Xrj2e5TeDreEWDdKq3HA-7" value="默认构造函数" style="rounded=1;whiteSpace=wrap;html=1;" parent="1" vertex="1">
          <mxGeometry x="20" y="370" width="120" height="60" as="geometry" />
        </mxCell>
        <mxCell id="Jm2jBwDtXu_H1HuVSEjl-5" style="edgeStyle=orthogonalEdgeStyle;curved=1;rounded=0;orthogonalLoop=1;jettySize=auto;html=1;exitX=0.5;exitY=1;exitDx=0;exitDy=0;" edge="1" parent="1" source="Jm2jBwDtXu_H1HuVSEjl-1" target="Xrj2e5TeDreEWDdKq3HA-7">
          <mxGeometry relative="1" as="geometry" />
        </mxCell>
        <mxCell id="Jm2jBwDtXu_H1HuVSEjl-1" value="类类型" style="ellipse;whiteSpace=wrap;html=1;aspect=fixed;" vertex="1" parent="1">
          <mxGeometry x="80" y="260" width="60" height="60" as="geometry" />
        </mxCell>
        <mxCell id="Jm2jBwDtXu_H1HuVSEjl-7" style="edgeStyle=orthogonalEdgeStyle;curved=1;rounded=0;orthogonalLoop=1;jettySize=auto;html=1;exitX=0.5;exitY=1;exitDx=0;exitDy=0;" edge="1" parent="1" source="Jm2jBwDtXu_H1HuVSEjl-2" target="Jm2jBwDtXu_H1HuVSEjl-6">
          <mxGeometry relative="1" as="geometry" />
        </mxCell>
        <mxCell id="Jm2jBwDtXu_H1HuVSEjl-8" style="edgeStyle=orthogonalEdgeStyle;curved=1;rounded=0;orthogonalLoop=1;jettySize=auto;html=1;exitX=0.5;exitY=1;exitDx=0;exitDy=0;entryX=0.5;entryY=0;entryDx=0;entryDy=0;" edge="1" parent="1" source="Jm2jBwDtXu_H1HuVSEjl-2" target="Xrj2e5TeDreEWDdKq3HA-3">
          <mxGeometry relative="1" as="geometry" />
        </mxCell>
        <mxCell id="Jm2jBwDtXu_H1HuVSEjl-2" value="基本类型" style="ellipse;whiteSpace=wrap;html=1;aspect=fixed;" vertex="1" parent="1">
          <mxGeometry x="250" y="260" width="60" height="60" as="geometry" />
        </mxCell>
        <mxCell id="Jm2jBwDtXu_H1HuVSEjl-6" value="indeterminate" style="rounded=1;whiteSpace=wrap;html=1;" vertex="1" parent="1">
          <mxGeometry x="170" y="370" width="120" height="60" as="geometry" />
        </mxCell>
      </root>
    </mxGraphModel>
  </diagram>
</mxfile>
